<mxfile host="65bd71144e">
    <diagram id="SVLjRhpCXCstEh_syh1J" name="Auth. Usecase">
        <mxGraphModel dx="1086" dy="1844" grid="1" gridSize="10" guides="1" tooltips="1" connect="1" arrows="1" fold="1" page="1" pageScale="1" pageWidth="850" pageHeight="1100" background="none" math="0" shadow="0">
            <root>
                <mxCell id="0"/>
                <mxCell id="1" parent="0"/>
                <mxCell id="10" style="edgeStyle=none;html=1;exitX=1;exitY=0.5;exitDx=0;exitDy=0;entryX=0;entryY=0.5;entryDx=0;entryDy=0;" edge="1" parent="1" source="6" target="9">
                    <mxGeometry relative="1" as="geometry"/>
                </mxCell>
                <mxCell id="6" value="Auth System" style="html=1;" vertex="1" parent="1">
                    <mxGeometry x="190" y="125" width="110" height="50" as="geometry"/>
                </mxCell>
                <mxCell id="8" style="edgeStyle=none;html=1;exitX=0.5;exitY=0.5;exitDx=0;exitDy=0;exitPerimeter=0;entryX=0;entryY=0.5;entryDx=0;entryDy=0;" edge="1" parent="1" source="7" target="6">
                    <mxGeometry relative="1" as="geometry"/>
                </mxCell>
                <mxCell id="7" value="Actor" style="shape=umlActor;verticalLabelPosition=bottom;verticalAlign=top;html=1;" vertex="1" parent="1">
                    <mxGeometry x="40" y="120" width="30" height="60" as="geometry"/>
                </mxCell>
                <mxCell id="25" style="edgeStyle=none;html=1;exitX=1;exitY=0.5;exitDx=0;exitDy=0;entryX=0;entryY=0.5;entryDx=0;entryDy=0;" edge="1" parent="1" source="9" target="24">
                    <mxGeometry relative="1" as="geometry"/>
                </mxCell>
                <mxCell id="26" style="edgeStyle=none;html=1;exitX=1;exitY=0.5;exitDx=0;exitDy=0;entryX=0;entryY=0.5;entryDx=0;entryDy=0;" edge="1" parent="1" source="9" target="23">
                    <mxGeometry relative="1" as="geometry"/>
                </mxCell>
                <mxCell id="9" value="V" style="html=1;" vertex="1" parent="1">
                    <mxGeometry x="360" y="135" width="40" height="30" as="geometry"/>
                </mxCell>
                <mxCell id="19" value="Email Confirmation" style="html=1;" vertex="1" parent="1">
                    <mxGeometry x="515" y="470" width="110" height="50" as="geometry"/>
                </mxCell>
                <mxCell id="29" style="edgeStyle=none;html=1;exitX=0.5;exitY=0;exitDx=0;exitDy=0;entryX=0.5;entryY=1;entryDx=0;entryDy=0;" edge="1" parent="1" source="20" target="22">
                    <mxGeometry relative="1" as="geometry"/>
                </mxCell>
                <mxCell id="30" style="edgeStyle=none;html=1;exitX=0.5;exitY=1;exitDx=0;exitDy=0;" edge="1" parent="1" source="20" target="19">
                    <mxGeometry relative="1" as="geometry"/>
                </mxCell>
                <mxCell id="20" value="Traditional" style="html=1;" vertex="1" parent="1">
                    <mxGeometry x="520" y="360" width="100" height="40" as="geometry"/>
                </mxCell>
                <mxCell id="28" style="edgeStyle=none;html=1;exitX=0.5;exitY=0;exitDx=0;exitDy=0;entryX=0.5;entryY=1;entryDx=0;entryDy=0;" edge="1" parent="1" source="21" target="22">
                    <mxGeometry relative="1" as="geometry">
                        <Array as="points">
                            <mxPoint x="460" y="330"/>
                        </Array>
                    </mxGeometry>
                </mxCell>
                <mxCell id="21" value="OAuth2" style="html=1;" vertex="1" parent="1">
                    <mxGeometry x="385" y="360" width="80" height="40" as="geometry"/>
                </mxCell>
                <mxCell id="27" style="edgeStyle=none;html=1;exitX=0.5;exitY=0;exitDx=0;exitDy=0;entryX=0.5;entryY=1;entryDx=0;entryDy=0;" edge="1" parent="1" source="22" target="23">
                    <mxGeometry relative="1" as="geometry"/>
                </mxCell>
                <mxCell id="22" value="V" style="html=1;" vertex="1" parent="1">
                    <mxGeometry x="475" y="270" width="40" height="30" as="geometry"/>
                </mxCell>
                <mxCell id="23" value="Sign Up" style="html=1;" vertex="1" parent="1">
                    <mxGeometry x="440" y="180" width="110" height="50" as="geometry"/>
                </mxCell>
                <mxCell id="31" style="edgeStyle=none;html=1;exitX=1;exitY=0.5;exitDx=0;exitDy=0;entryX=1;entryY=0.5;entryDx=0;entryDy=0;" edge="1" parent="1" source="24" target="23">
                    <mxGeometry relative="1" as="geometry">
                        <Array as="points">
                            <mxPoint x="590" y="110"/>
                            <mxPoint x="600" y="150"/>
                            <mxPoint x="590" y="180"/>
                        </Array>
                    </mxGeometry>
                </mxCell>
                <mxCell id="32" value="Not Registered?" style="edgeLabel;html=1;align=center;verticalAlign=middle;resizable=0;points=[];" vertex="1" connectable="0" parent="31">
                    <mxGeometry x="-0.1049" relative="1" as="geometry">
                        <mxPoint as="offset"/>
                    </mxGeometry>
                </mxCell>
                <mxCell id="37" style="edgeStyle=none;html=1;exitX=0.5;exitY=0;exitDx=0;exitDy=0;entryX=0.5;entryY=1;entryDx=0;entryDy=0;" edge="1" parent="1" source="24" target="36">
                    <mxGeometry relative="1" as="geometry"/>
                </mxCell>
                <mxCell id="24" value="Login" style="html=1;" vertex="1" parent="1">
                    <mxGeometry x="440" y="70" width="110" height="50" as="geometry"/>
                </mxCell>
                <mxCell id="36" value="Reset Password" style="html=1;" vertex="1" parent="1">
                    <mxGeometry x="440" y="-40" width="110" height="50" as="geometry"/>
                </mxCell>
            </root>
        </mxGraphModel>
    </diagram>
    <diagram id="E5MBLXdprMILuUIbsJhK" name="Settings Components">
        <mxGraphModel dx="1086" dy="1844" grid="1" gridSize="10" guides="1" tooltips="1" connect="1" arrows="1" fold="1" page="1" pageScale="1" pageWidth="850" pageHeight="1100" math="0" shadow="0">
            <root>
                <mxCell id="0"/>
                <mxCell id="1" parent="0"/>
                <mxCell id="k3Com5U_eot_8w3PiR6s-16" style="edgeStyle=none;html=1;exitX=0.5;exitY=0.5;exitDx=0;exitDy=0;exitPerimeter=0;entryX=0;entryY=0.5;entryDx=0;entryDy=0;" edge="1" parent="1" source="k3Com5U_eot_8w3PiR6s-1" target="k3Com5U_eot_8w3PiR6s-10">
                    <mxGeometry relative="1" as="geometry"/>
                </mxCell>
                <mxCell id="k3Com5U_eot_8w3PiR6s-1" value="Actor" style="shape=umlActor;verticalLabelPosition=bottom;verticalAlign=top;html=1;" vertex="1" parent="1">
                    <mxGeometry x="70" y="120" width="30" height="60" as="geometry"/>
                </mxCell>
                <mxCell id="k3Com5U_eot_8w3PiR6s-5" value="Description&lt;br&gt;Site Theme&lt;br&gt;Avatar&lt;br&gt;,,,," style="html=1;" vertex="1" parent="1">
                    <mxGeometry x="600" y="-10" width="110" height="100" as="geometry"/>
                </mxCell>
                <mxCell id="k3Com5U_eot_8w3PiR6s-7" value="Import Lists" style="html=1;" vertex="1" parent="1">
                    <mxGeometry x="400" y="210" width="110" height="50" as="geometry"/>
                </mxCell>
                <mxCell id="k3Com5U_eot_8w3PiR6s-29" style="edgeStyle=none;html=1;exitX=1;exitY=0.5;exitDx=0;exitDy=0;entryX=0;entryY=0.5;entryDx=0;entryDy=0;" edge="1" parent="1" source="k3Com5U_eot_8w3PiR6s-8" target="k3Com5U_eot_8w3PiR6s-25">
                    <mxGeometry relative="1" as="geometry"/>
                </mxCell>
                <mxCell id="k3Com5U_eot_8w3PiR6s-8" value="Account" style="html=1;" vertex="1" parent="1">
                    <mxGeometry x="400" y="125" width="110" height="50" as="geometry"/>
                </mxCell>
                <mxCell id="k3Com5U_eot_8w3PiR6s-21" style="edgeStyle=none;html=1;exitX=1;exitY=0.5;exitDx=0;exitDy=0;entryX=0;entryY=0.5;entryDx=0;entryDy=0;" edge="1" parent="1" source="k3Com5U_eot_8w3PiR6s-9" target="k3Com5U_eot_8w3PiR6s-5">
                    <mxGeometry relative="1" as="geometry"/>
                </mxCell>
                <mxCell id="k3Com5U_eot_8w3PiR6s-9" value="Profile" style="html=1;" vertex="1" parent="1">
                    <mxGeometry x="400" y="40" width="110" height="50" as="geometry"/>
                </mxCell>
                <mxCell id="k3Com5U_eot_8w3PiR6s-17" style="edgeStyle=none;html=1;exitX=1;exitY=0.5;exitDx=0;exitDy=0;entryX=0;entryY=0.5;entryDx=0;entryDy=0;" edge="1" parent="1" source="k3Com5U_eot_8w3PiR6s-10" target="k3Com5U_eot_8w3PiR6s-9">
                    <mxGeometry relative="1" as="geometry">
                        <Array as="points">
                            <mxPoint x="360" y="150"/>
                            <mxPoint x="360" y="65"/>
                        </Array>
                    </mxGeometry>
                </mxCell>
                <mxCell id="k3Com5U_eot_8w3PiR6s-18" style="edgeStyle=none;html=1;exitX=1;exitY=0.5;exitDx=0;exitDy=0;entryX=0;entryY=0.5;entryDx=0;entryDy=0;" edge="1" parent="1" source="k3Com5U_eot_8w3PiR6s-10" target="k3Com5U_eot_8w3PiR6s-8">
                    <mxGeometry relative="1" as="geometry"/>
                </mxCell>
                <mxCell id="k3Com5U_eot_8w3PiR6s-19" style="edgeStyle=none;html=1;exitX=1;exitY=0.5;exitDx=0;exitDy=0;entryX=0;entryY=0.5;entryDx=0;entryDy=0;" edge="1" parent="1" source="k3Com5U_eot_8w3PiR6s-10" target="k3Com5U_eot_8w3PiR6s-7">
                    <mxGeometry relative="1" as="geometry">
                        <Array as="points">
                            <mxPoint x="360" y="150"/>
                            <mxPoint x="360" y="235"/>
                        </Array>
                    </mxGeometry>
                </mxCell>
                <mxCell id="k3Com5U_eot_8w3PiR6s-10" value="Settings" style="html=1;" vertex="1" parent="1">
                    <mxGeometry x="180" y="125" width="110" height="50" as="geometry"/>
                </mxCell>
                <mxCell id="k3Com5U_eot_8w3PiR6s-22" value="Credentials" style="swimlane;fontStyle=0;childLayout=stackLayout;horizontal=1;startSize=26;fillColor=none;horizontalStack=0;resizeParent=1;resizeParentMax=0;resizeLast=0;collapsible=1;marginBottom=0;" vertex="1" parent="1">
                    <mxGeometry x="600" y="120" width="140" height="186" as="geometry"/>
                </mxCell>
                <mxCell id="k3Com5U_eot_8w3PiR6s-23" value="Username" style="text;strokeColor=none;fillColor=none;align=left;verticalAlign=top;spacingLeft=4;spacingRight=4;overflow=hidden;rotatable=0;points=[[0,0.5],[1,0.5]];portConstraint=eastwest;" vertex="1" parent="k3Com5U_eot_8w3PiR6s-22">
                    <mxGeometry y="26" width="140" height="26" as="geometry"/>
                </mxCell>
                <mxCell id="k3Com5U_eot_8w3PiR6s-24" value="Email" style="text;strokeColor=none;fillColor=none;align=left;verticalAlign=top;spacingLeft=4;spacingRight=4;overflow=hidden;rotatable=0;points=[[0,0.5],[1,0.5]];portConstraint=eastwest;" vertex="1" parent="k3Com5U_eot_8w3PiR6s-22">
                    <mxGeometry y="52" width="140" height="26" as="geometry"/>
                </mxCell>
                <mxCell id="k3Com5U_eot_8w3PiR6s-25" value="Change Password" style="text;strokeColor=none;fillColor=none;align=left;verticalAlign=top;spacingLeft=4;spacingRight=4;overflow=hidden;rotatable=0;points=[[0,0.5],[1,0.5]];portConstraint=eastwest;" vertex="1" parent="k3Com5U_eot_8w3PiR6s-22">
                    <mxGeometry y="78" width="140" height="22" as="geometry"/>
                </mxCell>
                <mxCell id="k3Com5U_eot_8w3PiR6s-26" value="Publicity" style="text;strokeColor=none;fillColor=none;align=left;verticalAlign=top;spacingLeft=4;spacingRight=4;overflow=hidden;rotatable=0;points=[[0,0.5],[1,0.5]];portConstraint=eastwest;" vertex="1" parent="k3Com5U_eot_8w3PiR6s-22">
                    <mxGeometry y="100" width="140" height="30" as="geometry"/>
                </mxCell>
                <mxCell id="k3Com5U_eot_8w3PiR6s-27" value="deleteUser()" style="text;strokeColor=none;fillColor=none;align=left;verticalAlign=top;spacingLeft=4;spacingRight=4;overflow=hidden;rotatable=0;points=[[0,0.5],[1,0.5]];portConstraint=eastwest;" vertex="1" parent="k3Com5U_eot_8w3PiR6s-22">
                    <mxGeometry y="130" width="140" height="30" as="geometry"/>
                </mxCell>
                <mxCell id="k3Com5U_eot_8w3PiR6s-28" value="downloadData()" style="text;strokeColor=none;fillColor=none;align=left;verticalAlign=top;spacingLeft=4;spacingRight=4;overflow=hidden;rotatable=0;points=[[0,0.5],[1,0.5]];portConstraint=eastwest;" vertex="1" parent="k3Com5U_eot_8w3PiR6s-22">
                    <mxGeometry y="160" width="140" height="26" as="geometry"/>
                </mxCell>
            </root>
        </mxGraphModel>
    </diagram>
    <diagram id="A1LErPU3oRLpZcuMbbSq" name="Profile Components">
        <mxGraphModel dx="1086" dy="744" grid="1" gridSize="10" guides="1" tooltips="1" connect="1" arrows="1" fold="1" page="1" pageScale="1" pageWidth="850" pageHeight="1100" math="0" shadow="0">
            <root>
                <mxCell id="0"/>
                <mxCell id="1" parent="0"/>
                <mxCell id="x2r1tm0K__k7lW9DHoUU-7" style="edgeStyle=none;html=1;exitX=0.5;exitY=0.5;exitDx=0;exitDy=0;exitPerimeter=0;entryX=0;entryY=0.5;entryDx=0;entryDy=0;" edge="1" parent="1" source="x2r1tm0K__k7lW9DHoUU-1" target="x2r1tm0K__k7lW9DHoUU-6">
                    <mxGeometry relative="1" as="geometry"/>
                </mxCell>
                <mxCell id="x2r1tm0K__k7lW9DHoUU-1" value="Actor" style="shape=umlActor;verticalLabelPosition=bottom;verticalAlign=top;html=1;" vertex="1" parent="1">
                    <mxGeometry x="80" y="120" width="30" height="60" as="geometry"/>
                </mxCell>
                <mxCell id="x2r1tm0K__k7lW9DHoUU-10" style="edgeStyle=none;html=1;exitX=0.5;exitY=0;exitDx=0;exitDy=0;entryX=0.5;entryY=1;entryDx=0;entryDy=0;" edge="1" parent="1" source="x2r1tm0K__k7lW9DHoUU-2" target="x2r1tm0K__k7lW9DHoUU-4">
                    <mxGeometry relative="1" as="geometry"/>
                </mxCell>
                <mxCell id="x2r1tm0K__k7lW9DHoUU-2" value="Genre Overview&lt;br&gt;Activity" style="html=1;" vertex="1" parent="1">
                    <mxGeometry x="400" y="350" width="110" height="50" as="geometry"/>
                </mxCell>
                <mxCell id="x2r1tm0K__k7lW9DHoUU-4" value="Overview" style="html=1;" vertex="1" parent="1">
                    <mxGeometry x="400" y="250" width="110" height="50" as="geometry"/>
                </mxCell>
                <mxCell id="x2r1tm0K__k7lW9DHoUU-9" style="edgeStyle=none;html=1;exitX=0.5;exitY=1;exitDx=0;exitDy=0;entryX=0.5;entryY=0;entryDx=0;entryDy=0;" edge="1" parent="1" source="x2r1tm0K__k7lW9DHoUU-5" target="x2r1tm0K__k7lW9DHoUU-4">
                    <mxGeometry relative="1" as="geometry"/>
                </mxCell>
                <mxCell id="x2r1tm0K__k7lW9DHoUU-5" value="Overview&lt;br&gt;Movie List&lt;br&gt;Favorites&lt;br&gt;Reviews" style="html=1;" vertex="1" parent="1">
                    <mxGeometry x="400" y="100" width="110" height="100" as="geometry"/>
                </mxCell>
                <mxCell id="x2r1tm0K__k7lW9DHoUU-8" style="edgeStyle=none;html=1;exitX=1;exitY=0.5;exitDx=0;exitDy=0;entryX=0;entryY=0.5;entryDx=0;entryDy=0;" edge="1" parent="1" source="x2r1tm0K__k7lW9DHoUU-6" target="x2r1tm0K__k7lW9DHoUU-5">
                    <mxGeometry relative="1" as="geometry"/>
                </mxCell>
                <mxCell id="x2r1tm0K__k7lW9DHoUU-6" value="Profile" style="html=1;" vertex="1" parent="1">
                    <mxGeometry x="190" y="125" width="110" height="50" as="geometry"/>
                </mxCell>
            </root>
        </mxGraphModel>
    </diagram>
</mxfile>